<svg id="Group_1764" data-name="Group 1764" xmlns="http://www.w3.org/2000/svg" width="28.9" height="28.159" viewBox="0 0 28.9 28.159">
  <g id="Group_840" data-name="Group 840" transform="translate(0 0)">
    <ellipse id="Ellipse_159" data-name="Ellipse 159" cx="14.45" cy="14.08" rx="14.45" ry="14.08" fill="#f05629"/>
  </g>
  <path id="iconmonstr-twitter-1" d="M12.656,3.466a5.184,5.184,0,0,1-1.491.409,2.6,2.6,0,0,0,1.142-1.436,5.2,5.2,0,0,1-1.649.63A2.6,2.6,0,0,0,6.232,5.436,7.371,7.371,0,0,1,.881,2.723a2.6,2.6,0,0,0,.8,3.467A2.585,2.585,0,0,1,.509,5.865,2.6,2.6,0,0,0,2.591,8.443a2.6,2.6,0,0,1-1.173.044,2.6,2.6,0,0,0,2.426,1.8A5.221,5.221,0,0,1,0,11.366a7.35,7.35,0,0,0,3.98,1.166A7.343,7.343,0,0,0,11.36,4.81a5.286,5.286,0,0,0,1.3-1.344Z" transform="translate(9.143 6.689)" fill="#fff"/>
</svg>
