<svg id="Group_1764" data-name="Group 1764" xmlns="http://www.w3.org/2000/svg" width="25" height="25" viewBox="0 0 25 25">
  <g id="Group_840" data-name="Group 840" transform="translate(0 0)">
    <circle id="Ellipse_159" data-name="Ellipse 159" cx="12.5" cy="12.5" r="12.5" fill="#fff"/>
  </g>
  <path id="iconmonstr-twitter-1" d="M11.21,3.326a4.592,4.592,0,0,1-1.321.362A2.3,2.3,0,0,0,10.9,2.416a4.607,4.607,0,0,1-1.461.558,2.3,2.3,0,0,0-3.919,2.1,6.529,6.529,0,0,1-4.74-2.4,2.3,2.3,0,0,0,.711,3.071A2.29,2.29,0,0,1,.451,5.452,2.3,2.3,0,0,0,2.3,7.736a2.305,2.305,0,0,1-1.039.039A2.3,2.3,0,0,0,3.4,9.372a4.624,4.624,0,0,1-3.4.953,6.511,6.511,0,0,0,3.525,1.033,6.5,6.5,0,0,0,6.537-6.841A4.682,4.682,0,0,0,11.21,3.326Z" transform="translate(7.762 5.697)" fill="#e04b20"/>
</svg>
