<svg xmlns="http://www.w3.org/2000/svg" width="116.676" height="55.334" viewBox="0 0 116.676 55.334">
  <g id="Group_2421" data-name="Group 2421" transform="translate(0 0)">
    <g id="Group_2022" data-name="Group 2022" transform="translate(0 0)">
      <path id="Path_1986" data-name="Path 1986" d="M531.357,215.267a1.453,1.453,0,0,1,1.216-.549c2.878.022,5.756-.028,8.632.031a7.583,7.583,0,0,1,3.01.576,7.235,7.235,0,0,1,2.162,1.343,6.458,6.458,0,0,1,1.967,3.345,6.861,6.861,0,0,1,.279,2.073,6.441,6.441,0,0,1-1.659,3.93,7.957,7.957,0,0,1-2.79,2.043.53.53,0,0,0-.164.15,1.342,1.342,0,0,0-.1.162c.558.682.786,1.576,1.338,2.293a4.378,4.378,0,0,1,.356.683c.5.977.964,1.981,1.531,2.921.377.627.676,1.29,1.038,1.921.286.5.24.62-.219,1.105-1.457,0-2.942-.008-4.427,0a.842.842,0,0,1-.8-.562q-1.975-3.951-3.943-7.906c-.053-.106-.122-.2-.185-.308h-2.063v8.218l-.531.53h-4.279l-.365-.353Zm5.168,9.155c1.534,0,3.019.008,4.5,0a2.563,2.563,0,0,0,1.681-.678,1.88,1.88,0,0,0,.767-1.569c.295-.387.007-.789-.033-1.155-.074-.668-1.338-1.578-2.08-1.587-1.607-.019-3.215-.006-4.839-.006Z" transform="translate(-450.75 -182.146)" fill="#323d4b"/>
      <path id="Path_1987" data-name="Path 1987" d="M135.162,220.628c0,2.776-.005,5.551,0,8.327a8.028,8.028,0,0,1-1.062,3.876,6.078,6.078,0,0,1-1.078,1.522c-4.024,3.908-10.5,4.481-14.249-.229a7.355,7.355,0,0,1-1.643-3.476c-.315-.317-.081-.745-.227-1.117a3.145,3.145,0,0,1-.074-1.1q-.005-6.586,0-13.168a1.411,1.411,0,0,1,1.215-.548c.958.036,1.919.035,2.877,0a1.4,1.4,0,0,1,1.211.549c0,4.441.007,8.882-.007,13.324-.014,4.687,6.917,4.977,7.763.458a10.373,10.373,0,0,0,.116-1.911c.013-4.011.006-8.023.006-12.079l.606-.33c.828,0,1.655,0,2.483,0a4.139,4.139,0,0,1,1.951.245,6.642,6.642,0,0,1,.106.847c.011,1.6.005,3.209.005,4.813" transform="translate(-99.098 -182.138)" fill="#323d4b"/>
      <path id="Path_1988" data-name="Path 1988" d="M687.825,215.269c0,1.1-.015,2.213.008,3.323a1.514,1.514,0,0,1-.352.978H678.3v3.917h7.463l.4.423c0,1.234,0,2.493,0,3.754,0,.479-.068.544-.57.544q-3.255.005-6.511,0H678.3v4.2h8.945l.575.653c0,1.027,0,2.159,0,3.292,0,.7-.245.938-.947.938q-5.905,0-11.81,0h-1.431l-.339-.483V215.09a1.269,1.269,0,0,1,1.046-.365q6.132.013,12.264,0a1.457,1.457,0,0,1,1.217.549" transform="translate(-571.158 -182.147)" fill="#323d4b"/>
      <path id="Path_1989" data-name="Path 1989" d="M14.546,215.11v4.1l-.413.386H5.172v4.5h7.461l.4.429c0,1.152,0,2.337,0,3.521,0,.691-.244.923-.961.924q-3.067,0-6.134,0H5.155v7.211c0,.151.012.3,0,.454a.778.778,0,0,1-.69.661q-1.893.016-3.786,0a.742.742,0,0,1-.67-.68c-.013-.176,0-.353,0-.53V215.267a1.458,1.458,0,0,1,1.215-.548c4.089.019,8.179.012,12.268.007a1.269,1.269,0,0,1,1.059.384" transform="translate(0.001 -182.146)" fill="#323d4b"/>
      <path id="Path_1990" data-name="Path 1990" d="M541.374,8.7v9.711l-.4.4c-.954,0-1.913-.015-2.871.009a1.721,1.721,0,0,1-.822-.218c-.1-1.337.012-2.675-.137-4.021a37.2,37.2,0,0,1-.033-4.084V.558L537.527.2h.948c1.459,1.432,2.928,2.978,4.51,4.4,1.476,1.325,2.826,2.773,4.263,4.134.466.441.973.838,1.477,1.27-.026.011,0,.008.009-.005a.1.1,0,0,0,.037-.059c0-3.053,0-6.106,0-9.224l.482-.371c.868,0,1.827,0,2.786,0,.749,0,.973.229.973.989q0,8.629,0,17.262l-.382.374h-.993L541.374,8.7" transform="translate(-455.59 -0.17)" fill="#323d4b"/>
      <path id="Path_1991" data-name="Path 1991" d="M232.83.443c.884,0,1.767,0,2.651,0,.756,0,.984.226.984.978q0,8.632,0,17.276l-.39.37h-.9c-2.149-2.148-4.363-4.257-6.447-6.486-1.164-1.245-2.39-2.426-3.554-3.668a2.157,2.157,0,0,1-.227-.364l-.124.1V18.52a1.251,1.251,0,0,1-1.008.407c-.63-.025-1.262-.007-1.893-.007a1.349,1.349,0,0,1-1.212-.384v-.519q0-7.836-.005-15.672a2.273,2.273,0,0,0-.112-.782,1.129,1.129,0,0,1,.32-1.245h.965a12.981,12.981,0,0,0,.935.929c1.535,1.262,2.8,2.81,4.29,4.105.768.667,1.419,1.456,2.243,2.056a1.542,1.542,0,0,0,.162.235,22.81,22.81,0,0,0,2.716,2.5V.835c.173-.145.263-.445.606-.392" transform="translate(-187.069 -0.271)" fill="#323d4b"/>
      <path id="Path_1992" data-name="Path 1992" d="M678.223,2.643a1.089,1.089,0,0,1-.407.9,23.239,23.239,0,0,0-1.641,1.674,1.143,1.143,0,0,1-.594.414c-.573-.357-1.093-.688-1.62-1.006a5.277,5.277,0,0,0-1.365-.358c-.4,0-.808-.017-1.211,0a4.183,4.183,0,0,0-2.7,1.144,9.017,9.017,0,0,0-1.2,1.31,6.531,6.531,0,0,0-.6,1.5,2.872,2.872,0,0,0-.16,1.215,4.891,4.891,0,0,0,1.447,3.485,4.645,4.645,0,0,0,1.623,1.2,5.724,5.724,0,0,0,1.861.452,6.894,6.894,0,0,0,2.459-.374V12.778h-1.7l-.386-.454a.3.3,0,0,1-.01-.083c0-.908,0-1.816,0-2.767l.5-.351h5.492a1.226,1.226,0,0,1,.373,1c-.011,2.018,0,4.036-.005,6.055a1.316,1.316,0,0,1-1.033,1.41,5.685,5.685,0,0,0-1.306.487c-.269.182-.572.007-.822.252-.156.153-.5.118-.751.171-.232.048-.462.107-.695.149-.21.038-.435-.067-.632.14-.072.076-.29.013-.441.014-.5,0-1.01.009-1.514,0a8.705,8.705,0,0,1-4.931-1.612,9.242,9.242,0,0,1-3.1-3.538,10.787,10.787,0,0,1-.86-2.9,7.022,7.022,0,0,1-.112-1.757,10.432,10.432,0,0,1,.768-3.311,10.2,10.2,0,0,1,2.623-3.531A10.672,10.672,0,0,1,668.908.339,12.561,12.561,0,0,1,671.884,0a13,13,0,0,1,3.2.7,19.019,19.019,0,0,1,2.005,1.008,6.154,6.154,0,0,1,1.137.93" transform="translate(-561.712 -0.001)" fill="#323d4b"/>
      <path id="Path_1993" data-name="Path 1993" d="M95.883,1.484l.382-.378c.975,0,1.959.009,2.943-.005a1.256,1.256,0,0,1,.917.369v.454q0,5.3,0,10.6a3.505,3.505,0,0,0,.859,2.063,2.354,2.354,0,0,0,1.512.879,3.512,3.512,0,0,0,2.112-.159,3.009,3.009,0,0,0,1.433-1.334,3.679,3.679,0,0,0,.459-1.707c-.02-3.356-.009-6.712-.009-10.068V1.487a1.172,1.172,0,0,1,.948-.385q1.173.021,2.347,0a1.173,1.173,0,0,1,.946.385v.636c0,3.659.012,7.317-.007,10.976a5.688,5.688,0,0,1-1.043,3.2A7.409,7.409,0,0,1,106.2,19.18a5.962,5.962,0,0,1-2.421.558c-.378-.019-.757.008-1.136-.006a6.581,6.581,0,0,1-2.213-.505,7.064,7.064,0,0,1-2.364-1.612A6.232,6.232,0,0,1,96.464,15.4a6.773,6.773,0,0,1-.585-2.409c.01-3.835,0-7.671,0-11.509" transform="translate(-81.334 -0.934)" fill="#323d4b"/>
      <path id="Path_1994" data-name="Path 1994" d="M11.83,5.079H4.271V8.855h5.49c.151,0,.3-.008.454,0a.368.368,0,0,1,.4.414q.011,1.475,0,2.951c0,.323-.134.418-.542.419q-2.649,0-5.3,0H4.251v5.806c0,.151.01.3,0,.454a.767.767,0,0,1-.724.7q-1.4.02-2.8,0a.773.773,0,0,1-.714-.713c-.01-.125,0-.252,0-.378V2.244c0-.1,0-.2,0-.3a.76.76,0,0,1,.848-.809q5.147-.005,10.295,0a.736.736,0,0,1,.824.832c.007.807-.026,1.616.017,2.421.015.285-.237.421-.163.694" transform="translate(-0.005 -0.958)" fill="#323d4b"/>
      <path id="Path_1995" data-name="Path 1995" d="M483.41,20.31c-.47,0-.941,0-1.412-.006-.312,0-.563-.055-.589-.4-.006-.075,0-.151,0-.227V2.792c0-.1,0-.2,0-.3a.356.356,0,0,1,.3-.36c1.083,0,2.167,0,3.25,0,.44,0,.522.086.537.5,0,.05,0,.1,0,.151V18.722a4.083,4.083,0,0,1,0,1.27c-.141.3-.646.284-.956.3-.378.014-.756.02-1.134.022" transform="translate(-408.377 -1.805)" fill="#323d4b"/>
      <path id="Path_1996" data-name="Path 1996" d="M116.77,119.177a4.944,4.944,0,0,1-.7-.316,26.113,26.113,0,0,0-2.8-1.658c-.409-.232-.824-.453-1.228-.693-.791-.471-1.563-.975-2.367-1.42-.577-.319-1.149-.644-1.716-.979-.208-.123-.422-.341-.744-.192v2.6a1.49,1.49,0,0,1-1,.236q-15.037,0-30.074,0H66.374c-.329-.645-.65-1.294-.992-1.931a3.6,3.6,0,0,0-.511-.769,9.288,9.288,0,0,0-3.207-2.471,7.5,7.5,0,0,0-3.1-.737,8.643,8.643,0,0,1-1.133,0,5.549,5.549,0,0,0-2.442.5,7.9,7.9,0,0,0-3.3,2.236,6.192,6.192,0,0,0-1.625,2.648,2.04,2.04,0,0,1-.326.526h-.872q-7.744,0-15.487-.011c-.182,0-.454.184-.573-.141-.837.051-1.674.122-2.512.146-.883.025-1.767.006-2.65.006H.994c0,.959-.007,1.865,0,2.77s-.039,1.791.032,2.682H49.844a8.149,8.149,0,0,0,1.666,2.866c.2.191.4.385.588.588a7.9,7.9,0,0,0,3.645,2.154,5.741,5.741,0,0,0,.919.167,5.117,5.117,0,0,0,.847.135c.176-.005.353,0,.53,0v.081a8.656,8.656,0,0,0,4.78-1.481l-.014-.005a7.9,7.9,0,0,0,1.8-1.54,7.6,7.6,0,0,0,1.539-2.608c.078-.246.19-.378.461-.359.2.015.4,0,.6,0h39.987c.042.994-.035,1.94.051,2.941.437-.224.821-.4,1.184-.611.774-.453,1.529-.938,2.306-1.385s1.59-.817,2.337-1.3c.853-.552,1.77-.99,2.624-1.537.446-.286.921-.526,1.452-.825a2.567,2.567,0,0,0-.375-.307M54.324,122c0,.418-.1.505-.529.507-.939,0-1,.137-.989-.959.017-1.682,0-3.364,0-5.072h1.515c0,1.858,0,3.691,0,5.524m4.977.334c-.084.044-.208.164-.334.166-.956.016-1.912.013-2.869.006a.363.363,0,0,1-.405-.4c-.01-.478,0-.956,0-1.434v-4.184h1.342v4.66H59.3Zm1.343-4.552a4.1,4.1,0,0,1-.483.934c-.081.13-.182.143-.655.154-.155-.594.566-.683.536-1.179h-.466l-.4-.428v-.6l.39-.354a1.037,1.037,0,0,1,1.075,1.47m3.076,4.017a1.451,1.451,0,0,1-.885.707c-.428.009-.857.02-1.283-.006a2.179,2.179,0,0,1-.53-.173c-.132-.443.262-.686.346-1.032.356.023.594.468,1.044.208-.074-.083-.117-.171-.186-.2a2.494,2.494,0,0,1-1.232-.883v-.864c.054-.054.109-.106.161-.161a1.357,1.357,0,0,1,.767-.515,3.173,3.173,0,0,1,1.438.171.455.455,0,0,1,.2.511,1.467,1.467,0,0,1-.16.311c-.142.2-.337.318-.563.157s-.409-.085-.689-.056c.41.212.757.386,1.1.57a1.187,1.187,0,0,1,.473,1.258" transform="translate(-0.838 -94.01)" fill="#f05629"/>
      <path id="Path_1997" data-name="Path 1997" d="M395.337,220.657c0-1.6.006-3.209-.005-4.813a6.639,6.639,0,0,0-.106-.847,4.14,4.14,0,0,0-1.952-.245c-.828-.005-1.655,0-2.483,0l-.606.33c0,4.057.006,8.068-.006,12.079a10.373,10.373,0,0,1-.116,1.911c-.846,4.519-7.777,4.229-7.763-.458.013-4.153.007-8.306.007-12.459a10.008,10.008,0,0,1-5.3,1.56q0,5.37,0,10.743a3.147,3.147,0,0,0,.074,1.1c.146.372-.088.8.227,1.117a7.355,7.355,0,0,0,1.643,3.476c3.754,4.71,10.225,4.137,14.249.229a6.076,6.076,0,0,0,1.078-1.522,8.028,8.028,0,0,0,1.062-3.876c-.008-2.776,0-5.551,0-8.327" transform="translate(-319.805 -182.167)" fill="#323d4b"/>
      <path id="Path_1998" data-name="Path 1998" d="M257.608,215.78c-.126,0-.252,0-.379,0-.441.009-.527.086-.537.5-.007.3,0,.605,0,.908v2.919l.459.366h4.693v17.361a1.4,1.4,0,0,0,.977.366c1.211-.019,2.422-.007,3.532-.007l.506-.383V220.475h.6c1.287,0,2.573.005,3.86,0a.738.738,0,0,0,.823-.832c.006-.475,0-.95,0-1.425a10.068,10.068,0,0,1-4.244-2.436Z" transform="translate(-217.749 -183.045)" fill="#323d4b"/>
      <path id="Path_1999" data-name="Path 1999" d="M364.637,19.777a6.8,6.8,0,0,0,1.937-.968,10.289,10.289,0,0,0,2.407-2.389,8.9,8.9,0,0,0,1.169-2.24,12.85,12.85,0,0,0,.48-2.221,5.085,5.085,0,0,0,.008-.982,2.68,2.68,0,0,0-.129-1.005,4.979,4.979,0,0,1-.151-.917A8.131,8.131,0,0,0,368.7,5.581a8.739,8.739,0,0,0-3.734-2.838,6.887,6.887,0,0,0-2.768-.631c-1.943.012-3.886,0-5.829,0-.379,0-.757,0-1.136,0-.642,0-.649.013-.653.691,0,.076,0,.151,0,.227V17.767a10.047,10.047,0,0,1,10.058,2.01M358.68,5.9a26.875,26.875,0,0,1,3.082.029,4.787,4.787,0,0,1,2.228.811,4.384,4.384,0,0,1,1.417,1.446,6.364,6.364,0,0,1,.71,1.826,5.577,5.577,0,0,1-.639,4.082,4.238,4.238,0,0,1-.762.966,4.584,4.584,0,0,1-.925.678,5.863,5.863,0,0,1-1.262.6,5.576,5.576,0,0,1-1.369.162c-.805.024-1.612.007-2.482.007Z" transform="translate(-300.789 -1.791)" fill="#323d4b"/>
    </g>
  </g>
</svg>
